<svg width="72" height="60" xmlns="http://www.w3.org/2000/svg"><defs><radialGradient cx="7.911%" cy="112.811%" fx="7.911%" fy="112.811%" r="132.159%" gradientTransform="matrix(.83268 0 0 1 .013 0)" id="a"><stop stop-color="#00A8DE" offset="0%"/><stop stop-color="#333391" offset="20%"/><stop stop-color="#E91388" offset="40%"/><stop stop-color="#EB2D2E" offset="60%"/><stop stop-color="#FDE92B" offset="80%"/><stop stop-color="#009E54" offset="100%"/></radialGradient></defs><g fill-rule="nonzero" fill="none"><path fill="url(#a)" d="M68.952 31.343L67.003 0 47.547 2.366l-22.3 1.464L0 5.29l1.987 13.364 1.83 20.024.558 21.268 28.998-2.284 25.805-1.712 12.813-.118-3.04-24.489z"/><path d="M16.776 44.582c-.2-1.5-1.042-2.217-2.4-3.175-1.122-.786-1.993-1.343-2.123-2.321-.082-.614.28-1.05.829-1.121.644-.086 1.01.288 1.197 1.212l1.632-.449c-.355-1.666-1.536-2.523-2.989-2.332-1.486.195-2.55 1.505-2.341 3.066.187 1.424 1.183 2.198 2.62 3.237 1.053.765 1.796 1.228 1.916 2.13.084.63-.32 1.104-.968 1.189-.742.096-1.216-.368-1.424-1.449l-1.597.46c.33 1.888 1.587 2.83 3.3 2.603 1.566-.206 2.558-1.46 2.348-3.051v.001zM31.909 45.081L30.475 34.27l-2.324.306-.303 6.143c-.024.607.002 1.214.077 1.816a10.765 10.765 0 0 0-.386-1.79l-1.94-5.835-2.29.302 1.436 10.812 1.581-.208-.63-4.763-.301-2.06a18.012 18.012 0 0 0-.336-1.87c.05.132.227.638.505 1.489l2.295 7 .871-.114.458-7.369c.025-.298.067-.817.098-1.57.015.635.063 1.267.145 1.896l.24 2.028.638 4.807 1.596-.21.004.001zM37.345 44.35l-.216-1.623-2.211.302-.37-2.718 2.207-.317-.199-1.513-2.208.315-.444-3.42 2.616-.366-.204-1.539-4.325.594 1.431 10.811 3.923-.526z" fill="#FFF"/><path fill="#FFF" d="M39.533 37.168l1.838-.227-.206-1.506-5.734.743.206 1.504 2.187-.29 1.223 9.307 1.712-.226-1.226-9.305zM43.412 46.13l1.693-.224-.641-4.84 1.758-.232.643 4.84 1.708-.224-1.431-10.813-1.71.224.585 4.41-1.76.233-.584-4.41-1.694.223 1.433 10.812zM45.57 52.435l-.18-1.466-1.494.184.18 1.466 1.495-.184zM51.802 45.017L50.37 34.204l-1.743.23 1.432 10.811 1.743-.228zM51.891 34.004l1.433 10.812 1.578-.212-.57-4.303-.203-1.344c-.03-.23-.138-.731-.369-1.478.157.385.334.761.53 1.127l2.938 5.692 1.597-.21-1.431-10.809-1.596.21.68 5.15.159 1.001c.08.488.2.968.36 1.435a15.474 15.474 0 0 0-.491-1.105L53.42 33.8l-1.53.204zM63.296 49.568l-.289-2.368-2.428.299.132 1.067 1.04-.129.079.64c-.2.17-.461.277-.816.32-.837.104-1.508-.43-1.614-1.281V48.1c-.099-.804.41-1.511 1.17-1.607.521-.067.919.071 1.335.336l.732-1.134c-.617-.413-1.308-.618-2.236-.503-1.635.202-2.692 1.552-2.502 3.085v.015c.197 1.593 1.564 2.57 3.208 2.367a3.595 3.595 0 0 0 2.189-1.092zM65.416 43.216l-.721-5.452-2.737.36.183 1.379 1.091-.144.225 1.684c.097.752-.182 1.18-.78 1.257-.598.078-.982-.26-1.082-1.007l-.8-6.041c-.101-.75.182-1.162.782-1.24.6-.077.978.245 1.078.996l.152 1.147 1.645-.216-.132-.997c-.242-1.838-1.227-2.657-2.876-2.44-1.747.23-2.597 1.403-2.377 3.086l.733 5.54c.26 1.962 1.227 2.893 2.797 2.687.777-.103 1.267-.477 1.567-1.201l.439.703.815-.106-.002.005zM20.533 45.168c-.597.079-.978-.262-1.082-1.008l-.799-6.033c-.099-.75.183-1.162.78-1.241.596-.08.978.246 1.076.994l.8 6.035c.1.75-.181 1.176-.779 1.256l.004-.003zm2.513-1.692l-.734-5.544c-.232-1.745-1.39-2.637-2.989-2.426-1.743.23-2.597 1.401-2.374 3.084l.736 5.545c.262 1.975 1.324 2.877 3.067 2.648 1.71-.225 2.55-1.395 2.296-3.309l-.002.002zM48.94 50.783c-.798.098-1.43-.495-1.524-1.254v-.015c-.092-.76.36-1.472 1.16-1.57.801-.1 1.444.494 1.535 1.255v.014c.093.758-.361 1.47-1.168 1.569h-.002zm2.603-1.74v-.014c-.186-1.511-1.543-2.574-3.175-2.374-1.63.2-2.696 1.577-2.509 3.086v.015c.188 1.51 1.544 2.573 3.17 2.374 1.625-.198 2.698-1.577 2.51-3.085l.004-.001zM54.873 48.395l-.965.119-.156-1.265.956-.116c.49-.061.817.114.866.527v.014c.048.385-.208.66-.705.72l.004.001zm1.243.9c.624-.359.986-.945.887-1.748v-.015c-.065-.52-.274-.906-.619-1.168-.4-.317-.983-.459-1.788-.36l-2.496.307.65 5.26 1.462-.18-.197-1.594.626-.077h.015l1.256 1.462 1.689-.207-1.488-1.68h.003zM26.975 25.692c-.56 1.285-1.37 2.22-2.426 2.806-1.058.585-2.526.96-4.406 1.12l-1.555.136-1.439-16.392 1.554-.136c1.772-.155 3.255-.032 4.447.366 1.193.399 2.182 1.226 2.966 2.482.788 1.261 1.265 2.834 1.432 4.718.173 1.982-.02 3.615-.578 4.9h.005zm7.339-5.506c-.187-2.126-.774-4.024-1.76-5.694-.987-1.67-2.216-2.965-3.687-3.885-1.47-.918-2.974-1.462-4.513-1.631-1.538-.17-3.544-.146-6.018.071L6.575 10.072l.368 4.185 3.762-.33 1.443 16.392-3.766.328.366 4.183 12.53-1.096c2.107-.182 3.655-.401 4.643-.657.99-.256 2.061-.718 3.216-1.386a9.659 9.659 0 0 0 2.895-2.55c.78-1.03 1.393-2.352 1.84-3.963.447-1.624.597-3.316.443-4.993h-.001zM54.72 25.313c-1.138 1.571-2.732 2.46-4.544 2.671-1.948.228-3.68-.337-5.087-1.601-1.429-1.284-2.34-3.182-2.621-5.587-.329-2.77.16-4.897 1.251-6.413a6.372 6.372 0 0 1 4.538-2.67c1.984-.232 3.757.34 5.175 1.666 1.384 1.295 2.284 3.182 2.569 5.606.318 2.696-.174 4.802-1.283 6.33l.003-.002zm8.168-7.06c-.404-3.435-1.98-6.403-4.69-8.526-2.63-2.063-6.131-2.998-10.465-2.491-4.334.507-7.531 2.235-9.608 4.862-2.123 2.687-2.965 5.927-2.564 9.352.391 3.32 1.922 6.26 4.57 8.427 2.59 2.122 6.119 3.094 10.57 2.574 4.334-.507 7.508-2.226 9.586-4.82 2.164-2.702 3.002-5.971 2.6-9.376l.001-.002z"/></g></svg>