<svg width="29" height="25" viewBox="0 0 29 25" xmlns="http://www.w3.org/2000/svg"><title>Slice 1</title><path d="M26.4 2.45c3.318 3.11 3.318 8.172 0 11.286L14.492 24.9 2.584 13.735c-3.318-3.11-3.318-8.172 0-11.286C5.86-.622 11.16-.66 14.492 2.33c3.33-2.99 8.63-2.948 11.908.12zm1.45 5.645c0-1.874-.774-3.635-2.184-4.957-1.41-1.322-3.285-2.05-5.29-2.05-1.94 0-3.773.69-5.17 1.945l-.718.645-.714-.645C12.38 1.78 10.544 1.09 8.602 1.09c-2 0-3.878.726-5.288 2.048-2.916 2.733-2.916 7.177 0 9.91l11.178 10.474 11.174-10.474c1.41-1.322 2.185-3.08 2.185-4.953z" fill="#808184" fill-rule="evenodd"/></svg>