<svg width="768" height="768" viewBox="0 0 768 768" xmlns="http://www.w3.org/2000/svg"><title>WinBackgroundS</title><g stroke-width="3" fill="none" fill-rule="evenodd"><g stroke="#4E2B63" fill="#FFF"><path d="M129.05 625.173c9.733 0 17.623-7.89 17.623-17.624 0-9.734-7.89-17.624-17.624-17.624-9.734 0-17.625 7.89-17.625 17.623s7.89 17.623 17.624 17.623zM108.387 95.24c9.733 0 17.624-7.89 17.624-17.624 0-9.734-7.89-17.624-17.623-17.624-9.734 0-17.624 7.89-17.624 17.624 0 9.733 7.89 17.624 17.624 17.624zM377 114.687c9.733 0 17.624-7.89 17.624-17.624 0-9.733-7.89-17.624-17.624-17.624-9.734 0-17.624 7.89-17.624 17.623s7.89 17.624 17.624 17.624z"/></g><g stroke="#23B7FB" fill="#FFF"><path d="M695.38 140.89l-35.304-80.48 97.1 31.548-61.796 48.933zM97.28 372.808l-.482 87.884-75.873-68.316 76.356-19.568zM421.764 632.92l77.824-40.832-24.7 99.065-53.124-58.232z"/></g><g stroke="#FCD116"><path d="M698.817 552.247l28.6 30.637-28.6 23.996 28.6 29.095-28.6 26.8M540.868 128.47L523.8 90.19l34.855-13.377-17.57-36.82 35.768-16.03"/></g><path d="M341.947 652.655l-2.17 41.856-37.13-3.904-1.06 40.785-39.148-1.955" stroke="#FCD116"/></g></svg>