<svg width="1440" height="561" viewBox="0 0 1440 561" xmlns="http://www.w3.org/2000/svg"><title>WinBackgroundL</title><g stroke-width="3" fill="none" fill-rule="evenodd"><g stroke="#4E2B63" fill="#FFF"><path d="M293.5 296c8.008 0 14.5-6.492 14.5-14.5s-6.492-14.5-14.5-14.5-14.5 6.492-14.5 14.5 6.492 14.5 14.5 14.5zM520.5 457c8.008 0 14.5-6.492 14.5-14.5s-6.492-14.5-14.5-14.5-14.5 6.492-14.5 14.5 6.492 14.5 14.5 14.5zM443.5 81c8.008 0 14.5-6.492 14.5-14.5S451.508 52 443.5 52 429 58.492 429 66.5 435.492 81 443.5 81zM78.5 111c8.008 0 14.5-6.492 14.5-14.5S86.508 82 78.5 82 64 88.492 64 96.5 70.492 111 78.5 111zM1088.5 436c8.008 0 14.5-6.492 14.5-14.5s-6.492-14.5-14.5-14.5-14.5 6.492-14.5 14.5 6.492 14.5 14.5 14.5zM1408.5 248c8.008 0 14.5-6.492 14.5-14.5s-6.492-14.5-14.5-14.5-14.5 6.492-14.5 14.5 6.492 14.5 14.5 14.5zM664.5 97c8.008 0 14.5-6.492 14.5-14.5S672.508 68 664.5 68 650 74.492 650 82.5 656.492 97 664.5 97zM31.5 393c8.008 0 14.5-6.492 14.5-14.5S39.508 364 31.5 364 17 370.492 17 378.5 23.492 393 31.5 393zM1333.5 52c8.008 0 14.5-6.492 14.5-14.5s-6.492-14.5-14.5-14.5-14.5 6.492-14.5 14.5 6.492 14.5 14.5 14.5z"/></g><g stroke="#23B7FB" fill="#FFF"><path d="M103.277 249.17l65.874 17.652-72.95 42.12 7.077-59.77zM1298.903 160.175l66.45 15.34-71.438 44.64 4.988-59.98zM1119.863 308.765L1088.903 248l80.114 26.03-49.154 34.735zM927.628 106.818l-30.96-60.765 80.114 26.03-49.154 34.735zM367.032 34.1l3.57 68.103L308 45.837 367.032 34.1zM1327.393 405.997l3.57 68.105-62.602-56.367 59.033-11.738zM634.543 474.19L693 439.068l-20.38 81.736-38.077-46.612z"/></g><g stroke="#FCD116"><path d="M929.273 407l23.532 25.207-23.532 19.742 23.532 23.937-23.532 22.05M1218.086 300.982l20.738-27.55 23.528 19.745 19.488-27.33 25.802 19.344M799.32 108.34l-14.04-31.495 28.675-11.006L799.5 35.544l29.428-13.188M291.77 402.808l-1.787 34.438-30.548-3.213-.873 33.555-32.208-1.61M1168.764 37.5l-1.786 34.437-30.547-3.213-.872 33.556-32.21-1.61M284.785 167.81l-31.966 12.935-10-29.043-30.78 13.39-12.153-29.87"/></g></g></svg>