<?xml version="1.0" encoding="UTF-8" standalone="no"?>
<svg width="1440px" height="561px" viewBox="0 0 1440 561" version="1.1" xmlns="http://www.w3.org/2000/svg" xmlns:xlink="http://www.w3.org/1999/xlink" xmlns:sketch="http://www.bohemiancoding.com/sketch/ns">
    <!-- Generator: Sketch 3.3.3 (12072) - http://www.bohemiancoding.com/sketch -->
    <title>WinBackgroundL</title>
    <desc>Created with Sketch.</desc>
    <defs></defs>
    <g id="Front-Runners" stroke="none" stroke-width="1" fill="none" fill-rule="evenodd" sketch:type="MSPage">
        <g id="WinBackgroundL" sketch:type="MSArtboardGroup" stroke-width="3">
            <g id="Circles-+-Triangles-+-Squiggle" sketch:type="MSLayerGroup" transform="translate(17.000000, 10.000000)">
                <g id="Circles" transform="translate(0.000000, 13.000000)" stroke="#4E2B63" fill="#FFFFFF" sketch:type="MSShapeGroup">
                    <path d="M276.5,273 C284.508129,273 291,266.508129 291,258.5 C291,250.491871 284.508129,244 276.5,244 C268.491871,244 262,250.491871 262,258.5 C262,266.508129 268.491871,273 276.5,273 Z" id="Oval-41"></path>
                    <path d="M503.5,434 C511.508129,434 518,427.508129 518,419.5 C518,411.491871 511.508129,405 503.5,405 C495.491871,405 489,411.491871 489,419.5 C489,427.508129 495.491871,434 503.5,434 Z" id="Oval-41"></path>
                    <path d="M426.5,58 C434.508129,58 441,51.5081289 441,43.5 C441,35.4918711 434.508129,29 426.5,29 C418.491871,29 412,35.4918711 412,43.5 C412,51.5081289 418.491871,58 426.5,58 Z" id="Oval-41"></path>
                    <path d="M61.5,88 C69.5081289,88 76,81.5081289 76,73.5 C76,65.4918711 69.5081289,59 61.5,59 C53.4918711,59 47,65.4918711 47,73.5 C47,81.5081289 53.4918711,88 61.5,88 Z" id="Oval-41"></path>
                    <path d="M1071.5,413 C1079.50813,413 1086,406.508129 1086,398.5 C1086,390.491871 1079.50813,384 1071.5,384 C1063.49187,384 1057,390.491871 1057,398.5 C1057,406.508129 1063.49187,413 1071.5,413 Z" id="Oval-41"></path>
                    <path d="M1391.5,225 C1399.50813,225 1406,218.508129 1406,210.5 C1406,202.491871 1399.50813,196 1391.5,196 C1383.49187,196 1377,202.491871 1377,210.5 C1377,218.508129 1383.49187,225 1391.5,225 Z" id="Oval-41"></path>
                    <path d="M647.5,74 C655.508129,74 662,67.5081289 662,59.5 C662,51.4918711 655.508129,45 647.5,45 C639.491871,45 633,51.4918711 633,59.5 C633,67.5081289 639.491871,74 647.5,74 Z" id="Oval-41"></path>
                    <path d="M14.5,370 C22.5081289,370 29,363.508129 29,355.5 C29,347.491871 22.5081289,341 14.5,341 C6.49187113,341 0,347.491871 0,355.5 C0,363.508129 6.49187113,370 14.5,370 Z" id="Oval-41"></path>
                    <path d="M1316.5,29 C1324.50813,29 1331,22.5081289 1331,14.5 C1331,6.49187113 1324.50813,0 1316.5,0 C1308.49187,0 1302,6.49187113 1302,14.5 C1302,22.5081289 1308.49187,29 1316.5,29 Z" id="Oval-41"></path>
                </g>
                <g id="Triangles" transform="translate(55.000000, 0.000000)" stroke="#23B7FB" fill="#FFFFFF" sketch:type="MSShapeGroup">
                    <path d="M42.5147021,232.888308 L90.7380853,281.111692 L6.5,281.111692 L42.5147021,232.888308 Z" id="Path-166" transform="translate(48.619043, 257.000000) rotate(-30.000000) translate(-48.619043, -257.000000) "></path>
                    <path d="M1238.75279,143.276617 L1286.97617,191.5 L1202.73809,191.5 L1238.75279,143.276617 Z" id="Path-166" transform="translate(1244.857128, 167.388308) rotate(328.000000) translate(-1244.857128, -167.388308) "></path>
                    <path d="M1043.40417,249.83539 L1091.62756,298.058773 L1007.38947,298.058773 L1043.40417,249.83539 Z" id="Path-166" transform="translate(1049.508512, 273.947081) rotate(198.000000) translate(-1049.508512, -273.947081) "></path>
                    <path d="M851.169097,47.8883084 L899.39248,96.1116916 L815.154395,96.1116916 L851.169097,47.8883084 Z" id="Path-166" transform="translate(857.273438, 72.000000) rotate(198.000000) translate(-857.273438, -72.000000) "></path>
                    <path d="M277.330079,21.9899278 L325.553462,70.213311 L241.315377,70.213311 L277.330079,21.9899278 Z" id="Path-166" transform="translate(283.434419, 46.101619) rotate(42.000000) translate(-283.434419, -46.101619) "></path>
                    <path d="M1237.69098,393.888308 L1285.91437,442.111692 L1201.67628,442.111692 L1237.69098,393.888308 Z" id="Path-166" transform="translate(1243.795324, 418.000000) rotate(42.000000) translate(-1243.795324, -418.000000) "></path>
                    <path d="M581.310669,439.989928 L629.534053,488.213311 L545.295967,488.213311 L581.310669,439.989928 Z" id="Path-166" transform="translate(587.415010, 464.101619) rotate(284.000000) translate(-587.415010, -464.101619) "></path>
                </g>
                <g id="Squiggle" transform="translate(174.000000, 4.000000)" stroke="#FCD116" sketch:type="MSShapeGroup">
                    <path d="M738.273438,393 L761.804688,418.207031 L738.273438,437.949219 L761.804688,461.886719 L738.273438,483.9375" id="Path-171"></path>
                    <path d="M1058.05543,222.03125 L1081.58668,247.238281 L1058.05543,266.980469 L1081.58668,290.917969 L1058.05543,312.96875" id="Path-171" transform="translate(1069.821057, 267.500000) rotate(-100.000000) translate(-1069.821057, -267.500000) "></path>
                    <path d="M600.234375,2.0488057 L623.765625,27.255837 L600.234375,46.9980245 L623.765625,70.9355245 L600.234375,92.9863057" id="Path-171" transform="translate(612.000000, 47.517556) rotate(199.000000) translate(-612.000000, -47.517556) "></path>
                    <path d="M64.46875,383.388308 L88,408.59534 L64.46875,428.337527 L88,452.275027 L64.46875,474.325808" id="Path-171" transform="translate(76.234375, 428.857058) rotate(46.000000) translate(-76.234375, -428.857058) "></path>
                    <path d="M941.464334,18.0799801 L964.995584,43.2870114 L941.464334,63.0291989 L964.995584,86.9666989 L941.464334,109.01748" id="Path-171" transform="translate(953.229959, 63.548730) rotate(46.000000) translate(-953.229959, -63.548730) "></path>
                    <path d="M35.3538036,103.03125 L58.8850536,128.238281 L35.3538036,147.980469 L58.8850536,171.917969 L35.3538036,193.96875" id="Path-171" transform="translate(47.119429, 148.500000) rotate(111.000000) translate(-47.119429, -148.500000) "></path>
                </g>
            </g>
        </g>
    </g>
</svg>